<svg width="60" height="60" viewBox="0 0 60 60" fill="none" xmlns="http://www.w3.org/2000/svg">
  <rect width="60" height="60" rx="10" fill="#1E5B94"/>
  <path d="M30 10L50 25V50H10V25L30 10Z" fill="#FFDE59"/>
  <path d="M30 15L45 27V45H15V27L30 15Z" fill="#1E5B94"/>
  <path d="M30 30C33.866 30 37 26.866 37 23C37 19.134 33.866 16 30 16C26.134 16 23 19.134 23 23C23 26.866 26.134 30 30 30Z" fill="#1E5B94"/>
  <path d="M30 25C31.1046 25 32 24.1046 32 23C32 21.8954 31.1046 21 30 21C28.8954 21 28 21.8954 28 23C28 24.1046 28.8954 25 30 25Z" fill="#FFDE59"/>
  <path d="M25 35H35V45H25V35Z" fill="#1E5B94"/>
</svg>